<svg xmlns="http://www.w3.org/2000/svg" viewBox="0 0 320 96" width="320" height="96" role="img" aria-labelledby="maioLogoTitle">
  <title id="maioLogoTitle">maio.os — the household cockpit</title>
  <defs>
    <linearGradient id="maioInk" gradientUnits="userSpaceOnUse" x1="0" y1="-46" x2="0" y2="2">
      <stop offset="0" stop-color="#2E323C"/><stop offset="1" stop-color="#191C23"/>
    </linearGradient>
    <radialGradient id="maioNodeGlow" cx="50%" cy="50%" r="50%">
      <stop offset="0" stop-color="#C9A227" stop-opacity=".32"/>
      <stop offset=".5" stop-color="#0FB5C9" stop-opacity=".13"/>
      <stop offset="1" stop-color="#0FB5C9" stop-opacity="0"/>
    </radialGradient>
    <linearGradient id="maioNodeCore" gradientUnits="userSpaceOnUse" x1="-5" y1="-10" x2="5" y2="0">
      <stop offset="0" stop-color="#EFD47E"/><stop offset="1" stop-color="#C9A227"/>
    </linearGradient>
  </defs>
<g transform="translate(30.11 75.45) scale(0.9682)" fill="none" stroke="url(#maioInk)" stroke-width="8.5" stroke-linecap="round" stroke-linejoin="round">
  <path transform="translate(0 0)" d="M0 -4.25V-27.925C0 -34.456 5.294 -39.75 11.825 -39.75 C18.356 -39.75 23.65 -34.456 23.65 -27.925V-4.25M23.65 -27.925C23.65 -34.456 28.944 -39.75 35.475 -39.75 C40.769 -39.75 47.3 -34.456 47.3 -27.925V-4.25"/>
  <path transform="translate(61.8 0)" d="M17.75 -39.75C27.553 -39.75 35.5 -31.803 35.5 -22C35.5 -12.197 27.553 -4.25 17.75 -4.25C7.947 -4.25 0 -12.197 0 -22C0 -31.803 7.947 -39.75 17.75 -39.75ZM35.5 -39.75V-4.25"/>
  <path transform="translate(111.8 0)" d="M0 -4.25V-39.75"/>
  <path transform="translate(126.3 0)" d="M17.75 -39.75C27.553 -39.75 35.5 -31.803 35.5 -22C35.5 -12.197 27.553 -4.25 17.75 -4.25C7.947 -4.25 0 -12.197 0 -22C0 -31.803 7.947 -39.75 17.75 -39.75Z"/>
  <path transform="translate(190.8 0)" d="M17.75 -39.75C27.553 -39.75 35.5 -31.803 35.5 -22C35.5 -12.197 27.553 -4.25 17.75 -4.25C7.947 -4.25 0 -12.197 0 -22C0 -31.803 7.947 -39.75 17.75 -39.75Z"/>
  <path transform="translate(240.8 0)" d="M27.5 -28.656C24.977 -33.981 18.67 -39.75 12.783 -39.75C6.896 -39.75 0.589 -35.312 0.589 -30.431C0.589 -25.55 4.373 -24.663 12.783 -22C19.511 -19.781 24.977 -16.675 24.977 -13.569C24.977 -10.019 18.67 -4.25 12.783 -4.25C6.896 -4.25 5.046 -8.333 0 -11.883"/>
</g>
<g transform="translate(30.11 75.45) scale(0.9682)">
  <circle cx="176.3" cy="-4.6" r="16.5" fill="url(#maioNodeGlow)"/>
  <circle cx="111.8" cy="-52.0" r="4.7" fill="#23262E"/>
  <circle cx="176.3" cy="-4.9" r="7.25" fill="none" stroke="#0FB5C9" stroke-opacity=".5" stroke-width="1.5"/>
  <circle cx="176.3" cy="-4.9" r="4.85" fill="url(#maioNodeCore)"/>
  <circle cx="175" cy="-6.3" r="1.3" fill="#FFF7E0" fill-opacity=".9"/>
</g>
</svg>
